{
  "episode_id": "PD-2026-008-carpenter",
  "render": "artifact://episodes/PD-2026-008-carpenter/08_edit/carpenter_review_v001.mp4",
  "media_render": "H:\\pd-media\\episodes\\PD-2026-008-carpenter\\08_edit\\carpenter_review_v001.mp4",
  "sha256": "2f83c879007844438ee3fda4da520ef797abd777c230cb16c625c358dc4ad5ec",
  "duration_seconds": 678.0,
  "target_duration_seconds": 678.0,
  "video": "Remotion CarpenterPremium, synthetic-symbolic visuals, 1920x1080 H.264",
  "audio": "ElevenLabs narration slowed to ~669s, library music, ambience, SFX",
  "captions": "burned SRT from locked script text, scaled to slowed narration",
  "paid_generation_performed": true,
  "estimated_elevenlabs_cost_usd": 2.82,
  "external_upload_performed": false,
  "publish_performed": false,
  "synthetic_content_disclosure_required": true,
  "accuracy_checks": {
    "vote_5_4": true,
    "no_incorrect_vote_count": true,
    "points_12898": true,
    "symbolic_reconstruction_label": true
  },
  "audio_probe_tail": "0:00:55.43 bitrate=N/A speed= 108x elapsed=0:00:00.51    \nframe= 3425 fps=3321 q=-0.0 size=N/A time=00:01:54.16 bitrate=N/A speed= 111x elapsed=0:00:01.03    \nframe= 5119 fps=3302 q=-0.0 size=N/A time=00:02:50.63 bitrate=N/A speed= 110x elapsed=0:00:01.55    \nframe= 6973 fps=3367 q=-0.0 size=N/A time=00:03:52.43 bitrate=N/A speed= 112x elapsed=0:00:02.07    \nframe= 8318 fps=3214 q=-0.0 size=N/A time=00:04:37.23 bitrate=N/A speed= 107x elapsed=0:00:02.58    \nframe=10087 fps=3250 q=-0.0 size=N/A time=00:05:36.23 bitrate=N/A speed= 108x elapsed=0:00:03.10    \nframe=11901 fps=3281 q=-0.0 size=N/A time=00:06:36.70 bitrate=N/A speed= 109x elapsed=0:00:03.62    \nframe=13604 fps=3295 q=-0.0 size=N/A time=00:07:33.43 bitrate=N/A speed= 110x elapsed=0:00:04.12    \nframe=15396 fps=3312 q=-0.0 size=N/A time=00:08:33.16 bitrate=N/A speed= 110x elapsed=0:00:04.64    \nframe=17207 fps=3331 q=-0.0 size=N/A time=00:09:33.56 bitrate=N/A speed= 111x elapsed=0:00:05.16    \nframe=19012 fps=3344 q=-0.0 size=N/A time=00:10:33.73 bitrate=N/A speed= 111x elapsed=0:00:05.68    \n[Parsed_volumedetect_0 @ 0000021a9026dd00] n_samples: 29900800\n[Parsed_volumedetect_0 @ 0000021a9026dd00] mean_volume: -22.4 dB\n[Parsed_volumedetect_0 @ 0000021a9026dd00] max_volume: -2.0 dB\n[Parsed_volumedetect_0 @ 0000021a9026dd00] histogram_2db: 22\n[Parsed_volumedetect_0 @ 0000021a9026dd00] histogram_3db: 71\n[Parsed_volumedetect_0 @ 0000021a9026dd00] histogram_4db: 271\n[Parsed_volumedetect_0 @ 0000021a9026dd00] histogram_5db: 896\n[Parsed_volumedetect_0 @ 0000021a9026dd00] histogram_6db: 2904\n[Parsed_volumedetect_0 @ 0000021a9026dd00] histogram_7db: 7132\n[Parsed_volumedetect_0 @ 0000021a9026dd00] histogram_8db: 16948\n[Parsed_volumedetect_0 @ 0000021a9026dd00] histogram_9db: 36910\n[out#0/null @ 0000021a8e292140] video:8422KiB audio:58400KiB subtitle:0KiB other streams:0KiB global headers:0KiB muxing overhead: unknown\nframe=20340 fps=3346 q=-0.0 Lsize=N/A time=00:11:18.00 bitrate=N/A speed= 112x elapsed=0:00:06.07    \n",
  "known_limitations": [
    "Only the first 8 local SDXL candidates completed before A1111 timeout; the cut uses those plus Remotion graphics.",
    "Image candidate QC is first-cut level; final publish master should continue SDXL candidate generation and visual selection.",
    "Captions are chunk-time scaled, not forced word-aligned."
  ]
}
